# xmcd
#
# Track frame offsets: 
#        150
#        15425
#        35210
#        57300
#        76735
#        94855
#        107380
#        129387
#        141280
#        169110
#        187480
#        207942
#
# Disc length: 2991 seconds
#
# Revision: 3
# Processed by: cddbd v1.5.2PL0 Copyright (c) Steve Scherf et al.
# Submitted via: ExactAudioCopy v0.99pb3
#
DISCID=a30bad0c
DTITLE=E. C. Scott - Come Get Your Love
DYEAR=1995
DGENRE=Blues
TTITLE0=Come Get Your Love
TTITLE1=Take The Garbabe Out
TTITLE2=You Got The Wront Number
TTITLE3=Something Wrong Going On
TTITLE4=I Need A Real Man
TTITLE5=I Keep Coming Back
TTITLE6=Before Quick Get Ready
TTITLE7=The Forecast Calls For Blues
TTITLE8=Sugar On The Floor
TTITLE9=I've Got Love On The Line
TTITLE10=I Ain't Never Loved Nobody
TTITLE11=Bright Lights
EXTD=
EXTT0=
EXTT1=
EXTT2=
EXTT3=
EXTT4=
EXTT5=
EXTT6=
EXTT7=
EXTT8=
EXTT9=
EXTT10=
EXTT11=
PLAYORDER=
